<svg width="50" height="50" viewBox="0 0 50 50" fill="none" xmlns="http://www.w3.org/2000/svg">
<g clip-path="url(#clip0_3509_39)">
<path d="M25 0.5C11.46 0.5 0.5 11.46 0.5 25C0.5 38.54 11.46 49.5 25 49.5C38.54 49.5 49.5 38.54 49.5 25C49.5 11.46 38.54 0.5 25 0.5ZM38.795 38.54H34.54V22.42C34.54 21.13 34.67 19.195 34.925 16.49H34.8C34.415 18.035 33.895 19.585 33.255 21.26L26.545 38.54H23.45L16.62 21.26C15.975 19.455 15.59 17.905 15.2 16.49H15.07C15.2 18.555 15.33 20.485 15.33 22.42V38.54H11.205V11.46H16.62L23.97 29.77C24.1 30.155 24.355 30.93 24.745 31.96C24.875 32.345 24.875 32.735 25.005 32.865C25.39 31.705 25.78 30.545 26.165 29.77L33.385 11.46H38.8V38.54H38.795Z" fill="black"/>
</g>
<defs>
<clipPath id="clip0_3509_39">
<rect width="50" height="50" fill="white"/>
</clipPath>
</defs>
</svg>
